<svg width="30" height="30" viewBox="0 0 30 30" fill="none" xmlns="http://www.w3.org/2000/svg">
<g clip-path="url(#clip0_214_651)">
<path d="M15.6539 2H9.31035C5.89149 2 3.11987 4.77161 3.11987 8.19048H10.535C11.8967 5.85663 13.6289 3.76717 15.6539 2Z" fill="#04C0B5"/>
<path d="M12.1975 8.19048H20.6896C24.1085 8.19048 26.8801 5.41886 26.8801 2H17.9046C15.6486 3.69735 13.7095 5.79754 12.1948 8.19048H12.1975Z" fill="#4D66D2"/>
<path d="M19.5884 11.9048H10.2933C9.50638 13.8519 8.97731 15.9279 8.74365 18.0953H13.3979C16.8168 18.0953 19.5884 15.3236 19.5884 11.9048Z" fill="#4D66D2"/>
<path d="M3.11987 18.0953H7.31489C7.53243 15.9467 8.0266 13.8814 8.7571 11.9316C5.59875 12.211 3.11987 14.8617 3.11987 18.0953Z" fill="#04C0B5"/>
<path d="M3.11987 28H8.31665C7.73386 26.1415 7.36592 24.1864 7.2397 22.1667C4.8387 23.0181 3.11987 25.309 3.11987 28Z" fill="#04C0B5"/>
<path d="M26.88 21.8095H9.31033C9.08474 21.8095 8.86183 21.8229 8.6416 21.8471C8.7544 23.9876 9.15457 26.0529 9.80718 28.0027H20.6895C24.1084 28.0027 26.88 25.2311 26.88 21.8122V21.8095Z" fill="#4D66D2"/>
</g>
<defs>
<clipPath id="clip0_214_651">
<rect width="23.7601" height="26" fill="white" transform="translate(3.11987 2)"/>
</clipPath>
</defs>
</svg>
