<svg width="14" height="14" viewBox="0 0 14 14" fill="none" xmlns="http://www.w3.org/2000/svg">
<path fill-rule="evenodd" clip-rule="evenodd" d="M5.67444 2.08139C5.73304 2.3158 5.59052 2.55333 5.35611 2.61193L2.1875 3.40409V10.3772L5.14389 9.63806C5.3783 9.57946 5.61583 9.72198 5.67444 9.95639C5.73304 10.1908 5.59052 10.4283 5.35611 10.4869L1.85611 11.3619C1.72541 11.3946 1.58695 11.3652 1.48076 11.2823C1.37457 11.1994 1.3125 11.0722 1.3125 10.9375V3.0625C1.3125 2.86174 1.44913 2.68675 1.64389 2.63806L5.14389 1.76306C5.3783 1.70446 5.61583 1.84698 5.67444 2.08139Z" fill="#4D66D2"/>
<path fill-rule="evenodd" clip-rule="evenodd" d="M5.01999 1.81534C5.14897 1.73563 5.31004 1.72838 5.44566 1.79619L8.94566 3.54619C9.09387 3.6203 9.1875 3.77179 9.1875 3.9375V11.8125C9.1875 11.9641 9.10899 12.1049 8.98001 12.1847C8.85102 12.2644 8.68996 12.2716 8.55434 12.2038L5.05434 10.4538C4.90613 10.3797 4.8125 10.2282 4.8125 10.0625V2.1875C4.8125 2.03587 4.89101 1.89506 5.01999 1.81534ZM5.6875 2.89539V9.79211L8.3125 11.1046V4.20789L5.6875 2.89539Z" fill="#4D66D2"/>
<path fill-rule="evenodd" clip-rule="evenodd" d="M12.5193 2.71766C12.6255 2.80057 12.6876 2.92778 12.6876 3.0625V10.9375C12.6876 11.1383 12.551 11.3133 12.3562 11.3619L8.85621 12.2369C8.6218 12.2955 8.38427 12.153 8.32567 11.9186C8.26706 11.6842 8.40958 11.4467 8.64399 11.3881L11.8126 10.5959V3.62284L8.85621 4.36194C8.6218 4.42054 8.38427 4.27802 8.32567 4.04361C8.26706 3.8092 8.40958 3.57167 8.64399 3.51307L12.144 2.63807C12.2747 2.60539 12.4132 2.63475 12.5193 2.71766Z" fill="#4D66D2"/>
</svg>
