<svg width="14" height="14" viewBox="0 0 14 14" fill="none" xmlns="http://www.w3.org/2000/svg">
<path fill-rule="evenodd" clip-rule="evenodd" d="M6.41675 2.33335C4.16159 2.33335 2.33341 4.16152 2.33341 6.41669C2.33341 8.67185 4.16159 10.5 6.41675 10.5C8.67191 10.5 10.5001 8.67185 10.5001 6.41669C10.5001 4.16152 8.67191 2.33335 6.41675 2.33335ZM1.16675 6.41669C1.16675 3.51719 3.51725 1.16669 6.41675 1.16669C9.31624 1.16669 11.6667 3.51719 11.6667 6.41669C11.6667 9.31618 9.31624 11.6667 6.41675 11.6667C3.51725 11.6667 1.16675 9.31618 1.16675 6.41669Z" fill="#4D66D2"/>
<path fill-rule="evenodd" clip-rule="evenodd" d="M9.3 9.3C9.52781 9.0722 9.89716 9.0722 10.125 9.3L12.6625 11.8375C12.8903 12.0653 12.8903 12.4347 12.6625 12.6625C12.4347 12.8903 12.0653 12.8903 11.8375 12.6625L9.3 10.125C9.0722 9.89716 9.0722 9.52781 9.3 9.3Z" fill="#4D66D2"/>
</svg>
