<svg width="14" height="14" viewBox="0 0 14 14" fill="none" xmlns="http://www.w3.org/2000/svg">
<path d="M6.99995 8.75C5.15074 8.75 3.50625 9.64287 2.45928 11.0285C2.23395 11.3267 2.12128 11.4758 2.12497 11.6773C2.12781 11.833 2.22558 12.0294 2.34808 12.1256C2.50665 12.25 2.72638 12.25 3.16584 12.25H10.8341C11.2735 12.25 11.4933 12.25 11.6518 12.1256C11.7743 12.0294 11.8721 11.833 11.8749 11.6773C11.8786 11.4758 11.766 11.3267 11.5406 11.0285C10.4937 9.64287 8.84917 8.75 6.99995 8.75Z" stroke="#011D49" stroke-linecap="round" stroke-linejoin="round"/>
<path d="M6.99995 7C8.4497 7 9.62495 5.82475 9.62495 4.375C9.62495 2.92525 8.4497 1.75 6.99995 1.75C5.55021 1.75 4.37495 2.92525 4.37495 4.375C4.37495 5.82475 5.55021 7 6.99995 7Z" stroke="#011D49" stroke-linecap="round" stroke-linejoin="round"/>
</svg>
