<svg width="16" height="16" viewBox="0 0 16 16" fill="none" xmlns="http://www.w3.org/2000/svg">
<g clip-path="url(#clip0_1_53)">
<path fill-rule="evenodd" clip-rule="evenodd" d="M2.66669 3.33333C2.48988 3.33333 2.32031 3.40357 2.19528 3.5286C2.07026 3.65362 2.00002 3.82319 2.00002 4V13.3333C2.00002 13.5101 2.07026 13.6797 2.19528 13.8047C2.32031 13.9298 2.48988 14 2.66669 14H12C12.1768 14 12.3464 13.9298 12.4714 13.8047C12.5964 13.6797 12.6667 13.5101 12.6667 13.3333V9.77333C12.6667 9.40514 12.9652 9.10667 13.3334 9.10667C13.7015 9.10667 14 9.40514 14 9.77333V13.3333C14 13.8638 13.7893 14.3725 13.4142 14.7475C13.0392 15.1226 12.5305 15.3333 12 15.3333H2.66669C2.13625 15.3333 1.62755 15.1226 1.25247 14.7475C0.877401 14.3725 0.666687 13.8638 0.666687 13.3333V4C0.666687 3.46957 0.877401 2.96086 1.25247 2.58579C1.62755 2.21071 2.13625 2 2.66669 2H6.22669C6.59488 2 6.89335 2.29848 6.89335 2.66667C6.89335 3.03486 6.59488 3.33333 6.22669 3.33333H2.66669Z" fill="#4D66D2"/>
<path fill-rule="evenodd" clip-rule="evenodd" d="M11.5286 0.861919C11.789 0.601569 12.2111 0.601569 12.4714 0.861919L15.1381 3.52859C15.3984 3.78893 15.3984 4.21104 15.1381 4.47139L8.47142 11.1381C8.3464 11.2631 8.17683 11.3333 8.00002 11.3333H5.33335C4.96516 11.3333 4.66669 11.0348 4.66669 10.6667V7.99999C4.66669 7.82318 4.73692 7.65361 4.86195 7.52858L11.5286 0.861919ZM6.00002 8.27613V9.99999H7.72388L13.7239 3.99999L12 2.27613L6.00002 8.27613Z" fill="#4D66D2"/>
</g>
<defs>
<clipPath id="clip0_1_53">
<rect width="16" height="16" fill="white"/>
</clipPath>
</defs>
</svg>
