<svg width="14" height="14" viewBox="0 0 14 14" fill="none" xmlns="http://www.w3.org/2000/svg">
<path fill-rule="evenodd" clip-rule="evenodd" d="M2.31564 9.31564C2.4865 9.14479 2.7635 9.14479 2.93436 9.31564L4.375 10.7563L5.81564 9.31564C5.9865 9.14479 6.2635 9.14479 6.43436 9.31564C6.60521 9.4865 6.60521 9.7635 6.43436 9.93436L4.68436 11.6844C4.5135 11.8552 4.2365 11.8552 4.06564 11.6844L2.31564 9.93436C2.14479 9.7635 2.14479 9.4865 2.31564 9.31564Z" fill="#4D66D2"/>
<path fill-rule="evenodd" clip-rule="evenodd" d="M4.375 2.1875C4.61662 2.1875 4.8125 2.38338 4.8125 2.625V11.375C4.8125 11.6166 4.61662 11.8125 4.375 11.8125C4.13338 11.8125 3.9375 11.6166 3.9375 11.375V2.625C3.9375 2.38338 4.13338 2.1875 4.375 2.1875Z" fill="#4D66D2"/>
<path fill-rule="evenodd" clip-rule="evenodd" d="M9.31564 2.31564C9.4865 2.14479 9.7635 2.14479 9.93436 2.31564L11.6844 4.06564C11.8552 4.2365 11.8552 4.5135 11.6844 4.68436C11.5135 4.85521 11.2365 4.85521 11.0656 4.68436L9.625 3.24372L8.18436 4.68436C8.0135 4.85521 7.7365 4.85521 7.56564 4.68436C7.39479 4.5135 7.39479 4.2365 7.56564 4.06564L9.31564 2.31564Z" fill="#4D66D2"/>
<path fill-rule="evenodd" clip-rule="evenodd" d="M9.625 2.1875C9.86662 2.1875 10.0625 2.38338 10.0625 2.625V11.375C10.0625 11.6166 9.86662 11.8125 9.625 11.8125C9.38338 11.8125 9.1875 11.6166 9.1875 11.375V2.625C9.1875 2.38338 9.38338 2.1875 9.625 2.1875Z" fill="#4D66D2"/>
</svg>
