<svg width="14" height="14" viewBox="0 0 14 14" fill="none" xmlns="http://www.w3.org/2000/svg">
<path fill-rule="evenodd" clip-rule="evenodd" d="M6.78294 1.80764C6.91744 1.73079 7.08256 1.73079 7.21706 1.80764L13.3421 5.30764C13.4784 5.38554 13.5625 5.5305 13.5625 5.6875C13.5625 5.8445 13.4784 5.98946 13.3421 6.06736L7.21706 9.56736C7.08256 9.64421 6.91744 9.64421 6.78294 9.56736L0.657939 6.06736C0.521625 5.98946 0.4375 5.8445 0.4375 5.6875C0.4375 5.5305 0.521625 5.38554 0.657939 5.30764L6.78294 1.80764ZM1.75681 5.6875L7 8.68361L12.2432 5.6875L7 2.69139L1.75681 5.6875Z" fill="#4D66D2"/>
<path fill-rule="evenodd" clip-rule="evenodd" d="M0.495096 7.65795C0.614976 7.44816 0.882225 7.37528 1.09201 7.49516L6.99995 10.8711L12.9079 7.49516C13.1177 7.37528 13.3849 7.44816 13.5048 7.65795C13.6247 7.86774 13.5518 8.13499 13.342 8.25487L7.21701 11.7549C7.08251 11.8317 6.91739 11.8317 6.78289 11.7549L0.657892 8.25487C0.448103 8.13499 0.375217 7.86774 0.495096 7.65795Z" fill="#4D66D2"/>
</svg>
