<svg width="14" height="14" viewBox="0 0 14 14" fill="none" xmlns="http://www.w3.org/2000/svg">
<path fill-rule="evenodd" clip-rule="evenodd" d="M1.37205 9.40457C1.49379 9.19586 1.76168 9.12536 1.97039 9.24711L6.99995 12.181L12.0295 9.24711C12.2382 9.12536 12.5061 9.19586 12.6279 9.40457C12.7496 9.61328 12.6791 9.88117 12.4704 10.0029L7.22039 13.0654C7.08417 13.1449 6.91573 13.1449 6.77951 13.0654L1.52951 10.0029C1.3208 9.88117 1.2503 9.61328 1.37205 9.40457Z" fill="#4D66D2"/>
<path fill-rule="evenodd" clip-rule="evenodd" d="M1.37205 6.77957C1.49379 6.57086 1.76168 6.50036 1.97039 6.62211L6.99995 9.55601L12.0295 6.62211C12.2382 6.50036 12.5061 6.57086 12.6279 6.77957C12.7496 6.98828 12.6791 7.25617 12.4704 7.37791L7.22039 10.4404C7.08417 10.5199 6.91573 10.5199 6.77951 10.4404L1.52951 7.37791C1.3208 7.25617 1.2503 6.98828 1.37205 6.77957Z" fill="#4D66D2"/>
<path fill-rule="evenodd" clip-rule="evenodd" d="M6.77956 0.934597C6.91578 0.855134 7.08422 0.855134 7.22044 0.934597L12.4704 3.9971C12.6049 4.0755 12.6875 4.2194 12.6875 4.375C12.6875 4.5306 12.6049 4.6745 12.4704 4.7529L7.22044 7.8154C7.08422 7.89487 6.91578 7.89487 6.77956 7.8154L1.52956 4.7529C1.39515 4.6745 1.3125 4.5306 1.3125 4.375C1.3125 4.2194 1.39515 4.0755 1.52956 3.9971L6.77956 0.934597ZM2.61828 4.375L7 6.931L11.3817 4.375L7 1.819L2.61828 4.375Z" fill="#4D66D2"/>
</svg>
