<svg width="16" height="16" viewBox="0 0 16 16" fill="none" xmlns="http://www.w3.org/2000/svg">
<path fill-rule="evenodd" clip-rule="evenodd" d="M3.33325 2.66668C2.96506 2.66668 2.66659 2.96515 2.66659 3.33334V12.6667C2.66659 13.0349 2.96506 13.3333 3.33325 13.3333H12.6666C13.0348 13.3333 13.3333 13.0349 13.3333 12.6667V3.33334C13.3333 2.96515 13.0348 2.66668 12.6666 2.66668H3.33325ZM1.33325 3.33334C1.33325 2.22877 2.22868 1.33334 3.33325 1.33334H12.6666C13.7712 1.33334 14.6666 2.22877 14.6666 3.33334V12.6667C14.6666 13.7712 13.7712 14.6667 12.6666 14.6667H3.33325C2.22868 14.6667 1.33325 13.7712 1.33325 12.6667V3.33334Z" fill="#4D66D2"/>
<path fill-rule="evenodd" clip-rule="evenodd" d="M7.99992 4.66666C8.36811 4.66666 8.66659 4.96513 8.66659 5.33332V10.6667C8.66659 11.0348 8.36811 11.3333 7.99992 11.3333C7.63173 11.3333 7.33325 11.0348 7.33325 10.6667V5.33332C7.33325 4.96513 7.63173 4.66666 7.99992 4.66666Z" fill="#4D66D2"/>
<path fill-rule="evenodd" clip-rule="evenodd" d="M4.66675 8.00001C4.66675 7.63182 4.96522 7.33334 5.33341 7.33334H10.6667C11.0349 7.33334 11.3334 7.63182 11.3334 8.00001C11.3334 8.3682 11.0349 8.66668 10.6667 8.66668H5.33341C4.96522 8.66668 4.66675 8.3682 4.66675 8.00001Z" fill="#4D66D2"/>
</svg>
