<svg width="14" height="14" viewBox="0 0 14 14" fill="none" xmlns="http://www.w3.org/2000/svg">
<path fill-rule="evenodd" clip-rule="evenodd" d="M1.75 2.1875C1.75 1.94588 1.94588 1.75 2.1875 1.75H4.375C4.61662 1.75 4.8125 1.94588 4.8125 2.1875C4.8125 2.42912 4.61662 2.625 4.375 2.625H2.625V11.375H4.375C4.61662 11.375 4.8125 11.5709 4.8125 11.8125C4.8125 12.0541 4.61662 12.25 4.375 12.25H2.1875C1.94588 12.25 1.75 12.0541 1.75 11.8125V2.1875Z" fill="black"/>
<path fill-rule="evenodd" clip-rule="evenodd" d="M9.1875 2.1875C9.1875 1.94588 9.38338 1.75 9.625 1.75H11.8125C12.0541 1.75 12.25 1.94588 12.25 2.1875V11.8125C12.25 12.0541 12.0541 12.25 11.8125 12.25H9.625C9.38338 12.25 9.1875 12.0541 9.1875 11.8125C9.1875 11.5709 9.38338 11.375 9.625 11.375H11.375V2.625H9.625C9.38338 2.625 9.1875 2.42912 9.1875 2.1875Z" fill="black"/>
</svg>
