<svg width="14" height="14" viewBox="0 0 14 14" fill="none" xmlns="http://www.w3.org/2000/svg">
<path d="M1.16663 3.50002C1.51663 3.79169 1.86663 4.08335 2.62496 4.08335C4.08329 4.08335 4.08329 2.91669 5.54163 2.91669C6.29996 2.91669 6.64996 3.20835 6.99996 3.50002C7.34996 3.79169 7.69996 4.08335 8.45829 4.08335C9.91663 4.08335 9.91663 2.91669 11.375 2.91669C12.1333 2.91669 12.4833 3.20835 12.8333 3.50002M1.16663 10.5C1.51663 10.7917 1.86663 11.0834 2.62496 11.0834C4.08329 11.0834 4.08329 9.91669 5.54163 9.91669C6.29996 9.91669 6.64996 10.2084 6.99996 10.5C7.34996 10.7917 7.69996 11.0834 8.45829 11.0834C9.91663 11.0834 9.91663 9.91669 11.375 9.91669C12.1333 9.91669 12.4833 10.2084 12.8333 10.5M1.16663 7.00002C1.51663 7.29169 1.86663 7.58335 2.62496 7.58335C4.08329 7.58335 4.08329 6.41669 5.54163 6.41669C6.29996 6.41669 6.64996 6.70835 6.99996 7.00002C7.34996 7.29169 7.69996 7.58335 8.45829 7.58335C9.91663 7.58335 9.91663 6.41669 11.375 6.41669C12.1333 6.41669 12.4833 6.70835 12.8333 7.00002" stroke="black" stroke-linecap="round" stroke-linejoin="round"/>
</svg>
