<svg width="14" height="14" viewBox="0 0 14 14" fill="none" xmlns="http://www.w3.org/2000/svg">
<path d="M3.49996 3.50002L6.12496 6.12502M3.49996 3.50002H1.74996L1.16663 1.75002L1.74996 1.16669L3.49996 1.75002V3.50002ZM11.2344 1.59894L9.70159 3.13172C9.47058 3.36273 9.35508 3.47824 9.3118 3.61143C9.27373 3.72859 9.27373 3.85479 9.3118 3.97195C9.35508 4.10514 9.47058 4.22064 9.70159 4.45165L9.83999 4.59005C10.071 4.82106 10.1865 4.93657 10.3197 4.97985C10.4369 5.01791 10.5631 5.01791 10.6802 4.97985C10.8134 4.93657 10.9289 4.82106 11.1599 4.59005L12.5937 3.15627C12.7481 3.53204 12.8333 3.94358 12.8333 4.37502C12.8333 6.14693 11.3969 7.58335 9.62496 7.58335C9.41134 7.58335 9.20259 7.56248 9.00065 7.52265C8.71707 7.46672 8.57528 7.43876 8.48932 7.44732C8.39793 7.45643 8.3529 7.47013 8.27192 7.51346C8.19576 7.55422 8.11936 7.63062 7.96656 7.78342L3.79163 11.9583C3.30838 12.4416 2.52488 12.4416 2.04163 11.9583C1.55838 11.4751 1.55838 10.6916 2.04163 10.2083L6.21656 6.03342C6.36936 5.88062 6.44576 5.80422 6.48652 5.72805C6.52985 5.64708 6.54355 5.60204 6.55266 5.51066C6.56122 5.4247 6.53326 5.28291 6.47733 4.99933C6.4375 4.79739 6.41663 4.58864 6.41663 4.37502C6.41663 2.60311 7.85305 1.16669 9.62496 1.16669C10.2115 1.16669 10.7613 1.32408 11.2344 1.59894ZM6.99999 8.74999L10.2083 11.9583C10.6915 12.4415 11.475 12.4415 11.9583 11.9583C12.4415 11.475 12.4415 10.6915 11.9583 10.2083L9.31889 7.56894C9.13205 7.55126 8.94987 7.51756 8.77375 7.46921C8.5468 7.40692 8.29784 7.45214 8.13143 7.61855L6.99999 8.74999Z" stroke="black" stroke-linecap="round" stroke-linejoin="round"/>
</svg>
