<svg width="14" height="14" viewBox="0 0 14 14" fill="none" xmlns="http://www.w3.org/2000/svg">
<path d="M6.41663 6.41667H3.61663C2.96323 6.41667 2.63653 6.41667 2.38697 6.54383C2.16745 6.65568 1.98897 6.83416 1.87712 7.05368C1.74996 7.30324 1.74996 7.62994 1.74996 8.28333V12.25M12.25 12.25V3.61667C12.25 2.96327 12.25 2.63657 12.1228 2.38701C12.0109 2.16749 11.8325 1.98901 11.6129 1.87716C11.3634 1.75 11.0367 1.75 10.3833 1.75H8.28329C7.6299 1.75 7.3032 1.75 7.05364 1.87716C6.83411 1.98901 6.65564 2.16749 6.54378 2.38701C6.41663 2.63657 6.41663 2.96327 6.41663 3.61667V12.25M12.8333 12.25H1.16663M8.45829 4.08333H10.2083M8.45829 6.41667H10.2083M8.45829 8.75H10.2083" stroke="#011D49" stroke-linecap="round" stroke-linejoin="round"/>
</svg>
