<svg width="14" height="14" viewBox="0 0 14 14" fill="none" xmlns="http://www.w3.org/2000/svg">
<g clip-path="url(#clip0_28_1661)">
<path fill-rule="evenodd" clip-rule="evenodd" d="M7.00004 1.75001C4.10055 1.75001 1.75004 4.10051 1.75004 7.00001C1.75004 9.8995 4.10055 12.25 7.00004 12.25C9.89954 12.25 12.25 9.8995 12.25 7.00001C12.25 4.10051 9.89954 1.75001 7.00004 1.75001ZM0.583374 7.00001C0.583374 3.45618 3.45621 0.583344 7.00004 0.583344C10.5439 0.583344 13.4167 3.45618 13.4167 7.00001C13.4167 10.5438 10.5439 13.4167 7.00004 13.4167C3.45621 13.4167 0.583374 10.5438 0.583374 7.00001Z" fill="#4D66D2"/>
<path fill-rule="evenodd" clip-rule="evenodd" d="M6.99996 4.08334C7.32213 4.08334 7.58329 4.34451 7.58329 4.66668V7.00001C7.58329 7.32218 7.32213 7.58334 6.99996 7.58334C6.67779 7.58334 6.41663 7.32218 6.41663 7.00001V4.66668C6.41663 4.34451 6.67779 4.08334 6.99996 4.08334Z" fill="#4D66D2"/>
<path fill-rule="evenodd" clip-rule="evenodd" d="M6.41663 9.33333C6.41663 9.01117 6.67779 8.75 6.99996 8.75H7.00579C7.32796 8.75 7.58913 9.01117 7.58913 9.33333C7.58913 9.6555 7.32796 9.91667 7.00579 9.91667H6.99996C6.67779 9.91667 6.41663 9.6555 6.41663 9.33333Z" fill="#4D66D2"/>
</g>
<defs>
<clipPath id="clip0_28_1661">
<rect width="14" height="14" fill="white"/>
</clipPath>
</defs>
</svg>
