<svg width="14" height="14" viewBox="0 0 14 14" fill="none" xmlns="http://www.w3.org/2000/svg">
<path fill-rule="evenodd" clip-rule="evenodd" d="M3.15698 2.00848C3.4852 1.83297 3.89017 1.75 4.375 1.75C4.61662 1.75 4.8125 1.94588 4.8125 2.1875C4.8125 2.42912 4.61662 2.625 4.375 2.625C3.98483 2.625 3.73355 2.69242 3.56958 2.78009C3.41298 2.86383 3.31064 2.9793 3.23742 3.13032C3.07166 3.47219 3.0625 3.9596 3.0625 4.59375C3.0625 4.61159 3.06251 4.62957 3.06252 4.64769C3.0628 5.20745 3.06314 5.89602 2.79992 6.43892C2.69735 6.65047 2.5549 6.84234 2.36224 7C2.5549 7.15767 2.69735 7.34953 2.79992 7.56108C3.06314 8.10398 3.0628 8.79255 3.06252 9.35231C3.06251 9.37043 3.0625 9.38841 3.0625 9.40625C3.0625 10.0404 3.07166 10.5278 3.23742 10.8697C3.31064 11.0207 3.41298 11.1362 3.56958 11.2199C3.73355 11.3076 3.98483 11.375 4.375 11.375C4.61662 11.375 4.8125 11.5709 4.8125 11.8125C4.8125 12.0541 4.61662 12.25 4.375 12.25C3.89017 12.25 3.4852 12.167 3.15698 11.9915C2.8214 11.8121 2.59561 11.5516 2.45008 11.2514C2.18686 10.7085 2.1872 10.02 2.18748 9.46019C2.18749 9.44207 2.1875 9.42409 2.1875 9.40625C2.1875 8.7721 2.17834 8.28469 2.01258 7.94282C1.93936 7.7918 1.83702 7.67633 1.68042 7.59259C1.51645 7.50492 1.26517 7.4375 0.875 7.4375C0.633375 7.4375 0.4375 7.24162 0.4375 7C0.4375 6.75838 0.633375 6.5625 0.875 6.5625C1.26517 6.5625 1.51645 6.49508 1.68042 6.40741C1.83702 6.32367 1.93936 6.2082 2.01258 6.05718C2.17834 5.71531 2.1875 5.2279 2.1875 4.59375C2.1875 4.57591 2.18749 4.55793 2.18748 4.53981C2.1872 3.98005 2.18686 3.29148 2.45008 2.74858C2.59561 2.44844 2.8214 2.18792 3.15698 2.00848Z" fill="black"/>
<path fill-rule="evenodd" clip-rule="evenodd" d="M9.1875 2.1875C9.1875 1.94588 9.38338 1.75 9.625 1.75C10.1098 1.75 10.5148 1.83297 10.843 2.00848C11.1786 2.18792 11.4044 2.44844 11.5499 2.74858C11.8131 3.29148 11.8128 3.98005 11.8125 4.53981C11.8125 4.55793 11.8125 4.57591 11.8125 4.59375C11.8125 5.2279 11.8217 5.71531 11.9874 6.05718C12.0606 6.2082 12.163 6.32367 12.3196 6.40741C12.4835 6.49508 12.7348 6.5625 13.125 6.5625C13.3666 6.5625 13.5625 6.75838 13.5625 7C13.5625 7.24162 13.3666 7.4375 13.125 7.4375C12.7348 7.4375 12.4835 7.50492 12.3196 7.59259C12.163 7.67633 12.0606 7.7918 11.9874 7.94282C11.8217 8.28469 11.8125 8.7721 11.8125 9.40625C11.8125 9.42409 11.8125 9.44207 11.8125 9.46019C11.8128 10.02 11.8131 10.7085 11.5499 11.2514C11.4044 11.5516 11.1786 11.8121 10.843 11.9915C10.5148 12.167 10.1098 12.25 9.625 12.25C9.38338 12.25 9.1875 12.0541 9.1875 11.8125C9.1875 11.5709 9.38338 11.375 9.625 11.375C10.0152 11.375 10.2665 11.3076 10.4304 11.2199C10.587 11.1362 10.6894 11.0207 10.7626 10.8697C10.9283 10.5278 10.9375 10.0404 10.9375 9.40625C10.9375 9.38841 10.9375 9.37043 10.9375 9.35231C10.9372 8.79255 10.9369 8.10398 11.2001 7.56108C11.3027 7.34953 11.4451 7.15767 11.6378 7C11.4451 6.84234 11.3027 6.65047 11.2001 6.43892C10.9369 5.89602 10.9372 5.20745 10.9375 4.64769C10.9375 4.62957 10.9375 4.61159 10.9375 4.59375C10.9375 3.9596 10.9283 3.47219 10.7626 3.13032C10.6894 2.9793 10.587 2.86383 10.4304 2.78009C10.2665 2.69242 10.0152 2.625 9.625 2.625C9.38338 2.625 9.1875 2.42912 9.1875 2.1875Z" fill="black"/>
</svg>
