<svg width="14" height="14" viewBox="0 0 14 14" fill="none" xmlns="http://www.w3.org/2000/svg">
<path fill-rule="evenodd" clip-rule="evenodd" d="M4.375 2.1875C4.375 1.94588 4.57088 1.75 4.8125 1.75H11.8125C12.0541 1.75 12.25 1.94588 12.25 2.1875V9.1875C12.25 9.42912 12.0541 9.625 11.8125 9.625H9.1875C8.94588 9.625 8.75 9.42912 8.75 9.1875C8.75 8.94588 8.94588 8.75 9.1875 8.75H11.375V2.625H5.25V4.8125C5.25 5.05412 5.05412 5.25 4.8125 5.25C4.57088 5.25 4.375 5.05412 4.375 4.8125V2.1875Z" fill="#4D66D2"/>
<path fill-rule="evenodd" clip-rule="evenodd" d="M1.75 4.8125C1.75 4.57088 1.94588 4.375 2.1875 4.375H9.1875C9.42912 4.375 9.625 4.57088 9.625 4.8125V11.8125C9.625 12.0541 9.42912 12.25 9.1875 12.25H2.1875C1.94588 12.25 1.75 12.0541 1.75 11.8125V4.8125ZM2.625 5.25V11.375H8.75V5.25H2.625Z" fill="#4D66D2"/>
</svg>
