<svg width="14" height="14" viewBox="0 0 14 14" fill="none" xmlns="http://www.w3.org/2000/svg">
<path fill-rule="evenodd" clip-rule="evenodd" d="M1.3125 3.0625C1.3125 2.82088 1.50838 2.625 1.75 2.625H12.25C12.4916 2.625 12.6875 2.82088 12.6875 3.0625V10.5C12.6875 10.7321 12.5953 10.9546 12.4312 11.1187C12.2671 11.2828 12.0446 11.375 11.8125 11.375H2.1875C1.95544 11.375 1.73288 11.2828 1.56878 11.1187C1.40469 10.9546 1.3125 10.7321 1.3125 10.5V3.0625ZM2.1875 3.5V10.5H11.8125V3.5H2.1875Z" fill="#4D66D2"/>
<path fill-rule="evenodd" clip-rule="evenodd" d="M1.3125 5.6875C1.3125 5.44588 1.50838 5.25 1.75 5.25H12.25C12.4916 5.25 12.6875 5.44588 12.6875 5.6875C12.6875 5.92912 12.4916 6.125 12.25 6.125H1.75C1.50838 6.125 1.3125 5.92912 1.3125 5.6875Z" fill="#4D66D2"/>
<path fill-rule="evenodd" clip-rule="evenodd" d="M1.3125 8.3125C1.3125 8.07088 1.50838 7.875 1.75 7.875H12.25C12.4916 7.875 12.6875 8.07088 12.6875 8.3125C12.6875 8.55412 12.4916 8.75 12.25 8.75H1.75C1.50838 8.75 1.3125 8.55412 1.3125 8.3125Z" fill="#4D66D2"/>
<path fill-rule="evenodd" clip-rule="evenodd" d="M4.8125 5.25C5.05412 5.25 5.25 5.44588 5.25 5.6875V10.9375C5.25 11.1791 5.05412 11.375 4.8125 11.375C4.57088 11.375 4.375 11.1791 4.375 10.9375V5.6875C4.375 5.44588 4.57088 5.25 4.8125 5.25Z" fill="#4D66D2"/>
</svg>
