<svg width="14" height="14" viewBox="0 0 14 14" fill="none" xmlns="http://www.w3.org/2000/svg">
<path d="M4.37496 4.08333H5.97913M4.37496 6.41667H5.97913M4.37496 8.75H5.97913M8.02079 4.08333H9.62496M8.02079 6.41667H9.62496M8.02079 8.75H9.62496M11.6666 12.25V3.61667C11.6666 2.96327 11.6666 2.63657 11.5395 2.38701C11.4276 2.16749 11.2491 1.98901 11.0296 1.87716C10.7801 1.75 10.4534 1.75 9.79996 1.75H4.19996C3.54656 1.75 3.21987 1.75 2.9703 1.87716C2.75078 1.98901 2.5723 2.16749 2.46045 2.38701C2.33329 2.63657 2.33329 2.96327 2.33329 3.61667V12.25M12.8333 12.25H1.16663" stroke="#011D49" stroke-linecap="round" stroke-linejoin="round"/>
</svg>
