<svg width="14" height="14" viewBox="0 0 14 14" fill="none" xmlns="http://www.w3.org/2000/svg">
<path fill-rule="evenodd" clip-rule="evenodd" d="M2.91669 2.33341C2.59452 2.33341 2.33335 2.59458 2.33335 2.91675V11.0834C2.33335 11.4056 2.59452 11.6667 2.91669 11.6667H11.0834C11.4055 11.6667 11.6667 11.4056 11.6667 11.0834V2.91675C11.6667 2.59458 11.4055 2.33341 11.0834 2.33341H2.91669ZM1.16669 2.91675C1.16669 1.95025 1.95019 1.16675 2.91669 1.16675H11.0834C12.0499 1.16675 12.8334 1.95025 12.8334 2.91675V11.0834C12.8334 12.0499 12.0499 12.8334 11.0834 12.8334H2.91669C1.95019 12.8334 1.16669 12.0499 1.16669 11.0834V2.91675Z" fill="white"/>
<path fill-rule="evenodd" clip-rule="evenodd" d="M4.95833 4.66667C4.79725 4.66667 4.66667 4.79725 4.66667 4.95833C4.66667 5.11942 4.79725 5.25 4.95833 5.25C5.11942 5.25 5.25 5.11942 5.25 4.95833C5.25 4.79725 5.11942 4.66667 4.95833 4.66667ZM3.5 4.95833C3.5 4.15292 4.15292 3.5 4.95833 3.5C5.76375 3.5 6.41667 4.15292 6.41667 4.95833C6.41667 5.76375 5.76375 6.41667 4.95833 6.41667C4.15292 6.41667 3.5 5.76375 3.5 4.95833Z" fill="white"/>
<path fill-rule="evenodd" clip-rule="evenodd" d="M8.92083 5.42085C9.14864 5.19305 9.51799 5.19305 9.74579 5.42085L12.6625 8.33752C12.8903 8.56533 12.8903 8.93467 12.6625 9.16248C12.4347 9.39029 12.0653 9.39029 11.8375 9.16248L9.33331 6.65829L3.32913 12.6625C3.10132 12.8903 2.73197 12.8903 2.50417 12.6625C2.27636 12.4347 2.27636 12.0653 2.50417 11.8375L8.92083 5.42085Z" fill="white"/>
</svg>
