<svg width="16" height="16" viewBox="0 0 16 16" fill="none" xmlns="http://www.w3.org/2000/svg">
<path fill-rule="evenodd" clip-rule="evenodd" d="M1.33325 4.00001C1.33325 3.63182 1.63173 3.33334 1.99992 3.33334H13.9999C14.3681 3.33334 14.6666 3.63182 14.6666 4.00001C14.6666 4.3682 14.3681 4.66668 13.9999 4.66668H1.99992C1.63173 4.66668 1.33325 4.3682 1.33325 4.00001Z" fill="#4D66D2"/>
<path fill-rule="evenodd" clip-rule="evenodd" d="M6.66675 1.99999C6.48994 1.99999 6.32037 2.07023 6.19534 2.19525C6.07032 2.32028 6.00008 2.48985 6.00008 2.66666V3.33332H10.0001V2.66666C10.0001 2.48985 9.92984 2.32028 9.80482 2.19525C9.67979 2.07023 9.51023 1.99999 9.33341 1.99999H6.66675ZM11.3334 3.33332V2.66666C11.3334 2.13622 11.1227 1.62752 10.7476 1.25244C10.3726 0.87737 9.86385 0.666656 9.33341 0.666656H6.66675C6.13631 0.666656 5.62761 0.87737 5.25253 1.25244C4.87746 1.62752 4.66675 2.13622 4.66675 2.66666V3.33332H3.33341C2.96522 3.33332 2.66675 3.6318 2.66675 3.99999V13.3333C2.66675 13.8638 2.87746 14.3725 3.25253 14.7475C3.62761 15.1226 4.13631 15.3333 4.66675 15.3333H11.3334C11.8638 15.3333 12.3726 15.1226 12.7476 14.7475C13.1227 14.3725 13.3334 13.8638 13.3334 13.3333V3.99999C13.3334 3.6318 13.0349 3.33332 12.6667 3.33332H11.3334ZM4.00008 4.66666V13.3333C4.00008 13.5101 4.07032 13.6797 4.19534 13.8047C4.32037 13.9298 4.48994 14 4.66675 14H11.3334C11.5102 14 11.6798 13.9298 11.8048 13.8047C11.9298 13.6797 12.0001 13.5101 12.0001 13.3333V4.66666H4.00008Z" fill="#4D66D2"/>
<path fill-rule="evenodd" clip-rule="evenodd" d="M6.66667 6.66666C7.03486 6.66666 7.33333 6.96513 7.33333 7.33332V11.3333C7.33333 11.7015 7.03486 12 6.66667 12C6.29848 12 6 11.7015 6 11.3333V7.33332C6 6.96513 6.29848 6.66666 6.66667 6.66666Z" fill="#4D66D2"/>
<path fill-rule="evenodd" clip-rule="evenodd" d="M9.33341 6.66666C9.7016 6.66666 10.0001 6.96513 10.0001 7.33332V11.3333C10.0001 11.7015 9.7016 12 9.33341 12C8.96522 12 8.66675 11.7015 8.66675 11.3333V7.33332C8.66675 6.96513 8.96522 6.66666 9.33341 6.66666Z" fill="#4D66D2"/>
</svg>
