<svg width="14" height="14" viewBox="0 0 14 14" fill="none" xmlns="http://www.w3.org/2000/svg">
<path fill-rule="evenodd" clip-rule="evenodd" d="M2.91675 2.33332C2.76204 2.33332 2.61367 2.39478 2.50427 2.50418C2.39487 2.61357 2.33341 2.76195 2.33341 2.91666V11.0833C2.33341 11.238 2.39487 11.3864 2.50427 11.4958C2.61367 11.6052 2.76204 11.6667 2.91675 11.6667H11.0834C11.2381 11.6667 11.3865 11.6052 11.4959 11.4958C11.6053 11.3864 11.6667 11.238 11.6667 11.0833V4.90828L9.09179 2.33332H2.91675ZM1.67931 1.67922C2.0075 1.35103 2.45262 1.16666 2.91675 1.16666H9.33342C9.48813 1.16666 9.6365 1.22811 9.74589 1.33751L12.6626 4.25418C12.772 4.36357 12.8334 4.51195 12.8334 4.66666V11.0833C12.8334 11.5475 12.649 11.9926 12.3209 12.3208C11.9927 12.6489 11.5475 12.8333 11.0834 12.8333H2.91675C2.45262 12.8333 2.0075 12.6489 1.67931 12.3208C1.35112 11.9926 1.16675 11.5475 1.16675 11.0833V2.91666C1.16675 2.45253 1.35112 2.00741 1.67931 1.67922Z" fill="#4D66D2"/>
<path fill-rule="evenodd" clip-rule="evenodd" d="M3.5 7.58333C3.5 7.26117 3.76117 7 4.08333 7H9.91667C10.2388 7 10.5 7.26117 10.5 7.58333V12.25C10.5 12.5722 10.2388 12.8333 9.91667 12.8333C9.5945 12.8333 9.33333 12.5722 9.33333 12.25V8.16667H4.66667V12.25C4.66667 12.5722 4.4055 12.8333 4.08333 12.8333C3.76117 12.8333 3.5 12.5722 3.5 12.25V7.58333Z" fill="#4D66D2"/>
<path fill-rule="evenodd" clip-rule="evenodd" d="M4.08333 1.16666C4.4055 1.16666 4.66667 1.42782 4.66667 1.74999V4.08332H8.75C9.07217 4.08332 9.33333 4.34449 9.33333 4.66666C9.33333 4.98882 9.07217 5.24999 8.75 5.24999H4.08333C3.76117 5.24999 3.5 4.98882 3.5 4.66666V1.74999C3.5 1.42782 3.76117 1.16666 4.08333 1.16666Z" fill="#4D66D2"/>
</svg>
